:SAMPLES-PER-SECOND 30
:FULLY-SPECIFIED
:DEGREES
839
root  14.7992 40.6368 9.98462 148.501 87.1127 151.329
RightUpLeg  3.28943 -11.8779 -12.6151
RightLeg  5.96007 -10.4756 2.71634
RightFoot  -0.827783 -0.375519 4.01974
RightToes  0.000481921 0.542163 -0.142578
Spine  -1.30128 -1.07593 -1.76701
Spine1  13.1743 -1.92623 3.00561
HEad  16.4295 1.60798 -0.318828
LeftShoulder1  9.99485 -13.9936 -49.8718
LeftArm  -16.2469 19.5097 -19.8462
LeftForeArm  172.574 -43.4463 -170.485
LeftHand  -0.25398 0.0180481 5.50724
RightShoulder  5.05335 8.28657 36.8549
RightArm  1.77054 -17.667 35.3284
RightForeArm  148.871 53.8695 164.632
RightHand  -1.32919 2.63643 -19.3308
LeftUpLeg  3.6425 7.49675 8.7778
LeftLeg  0.281777 12.3026 -3.39139
LeftFoot  2.87831 0.752267 -6.18994
LeftToes  1.06245e-005 4.65869e-005 -8.65517e-006
840
root  14.7956 40.637 9.98813 147.738 87.1859 150.55
RightUpLeg  3.25649 -11.8747 -12.6064
RightLeg  5.94248 -10.401 2.73474
RightFoot  -0.82778 -0.376443 4.03916
RightToes  0.000481921 0.542163 -0.142578
Spine  -1.46684 -1.07908 -1.77344
Spine1  13.2796 -1.9744 3.14593
HEad  16.5469 1.82445 -0.443366
LeftShoulder1  9.99549 -13.9645 -49.9572
LeftArm  -16.4176 17.8321 -19.758
LeftForeArm  172.053 -43.9669 -170.284
LeftHand  -0.25398 0.0180481 5.50724
RightShoulder  5.05284 8.34289 36.653
RightArm  1.66615 -17.5691 35.5217
RightForeArm  148.696 54.0466 164.527
RightHand  -1.33384 2.63836 -19.392
LeftUpLeg  3.6448 7.51119 8.79031
LeftLeg  0.266637 12.3724 -3.4045
LeftFoot  2.89234 0.752717 -6.19032
LeftToes  1.06245e-005 4.65869e-005 -8.65517e-006
841
root  14.7906 40.6372 9.99398 147.157 87.2488 149.991
RightUpLeg  3.25302 -11.8724 -12.5913
RightLeg  5.94646 -10.3382 2.74045
RightFoot  -0.817067 -0.375723 4.03337
RightToes  0.000481921 0.542163 -0.142578
Spine  -1.6157 -1.11901 -1.70536
Spine1  13.4095 -2.01567 3.13112
HEad  16.633 2.06977 -0.436426
LeftShoulder1  9.9521 -13.9455 -49.7954
LeftArm  -16.8291 15.7563 -20.0165
LeftForeArm  171.994 -44.9403 -169.96
LeftHand  -0.25398 0.0180481 5.50724
RightShoulder  5.09033 8.44659 36.5982
RightArm  1.53168 -17.5112 35.6968
RightForeArm  148.467 54.2598 164.398
RightHand  -1.31016 2.50809 -19.3568
LeftUpLeg  3.67258 7.53224 8.81644
LeftLeg  0.271034 12.427 -3.41166
LeftFoot  2.89775 0.752609 -6.1798
LeftToes  1.06245e-005 4.65869e-005 -8.65517e-006
842
root  14.7802 40.6372 9.99969 147.075 87.2592 149.947
RightUpLeg  3.26195 -11.8791 -12.5892
RightLeg  5.97451 -10.3144 2.74552
RightFoot  -0.806353 -0.373209 4.00009
RightToes  0.000481921 0.542163 -0.142578
Spine  -1.69666 -1.19648 -1.59743
Spine1  13.4798 -2.0628 3.00636
HEad  16.6428 2.19886 -0.331645
LeftShoulder1  9.87236 -13.9459 -49.3965
LeftArm  -17.5213 13.0533 -20.5813
LeftForeArm  171.944 -46.4454 -169.439
LeftHand  -0.25398 0.0180481 5.50724
RightShoulder  5.14232 8.54691 36.6731
RightArm  1.54891 -17.489 35.7156
RightForeArm  148.309 54.3828 164.32
RightHand  -1.28777 2.37624 -19.3432
LeftUpLeg  3.69285 7.54457 8.83471
LeftLeg  0.283255 12.4333 -3.41056
LeftFoot  2.9082 0.753129 -6.17477
LeftToes  1.06245e-005 4.65869e-005 -8.65517e-006
843
root  14.7604 40.6372 10.0047 147.492 87.2234 150.403
RightUpLeg  3.26777 -11.9173 -12.6092
RightLeg  6.01601 -10.3114 2.77572
RightFoot  -0.811886 -0.370505 3.96423
RightToes  0.000481921 0.542163 -0.142578
Spine  -1.81793 -1.26941 -1.47918
Spine1  13.6349 -2.10236 2.86006
HEad  16.5023 2.16279 -0.178492
LeftShoulder1  9.73002 -13.9095 -48.7844
LeftArm  -18.3707 9.15975 -21.2977
LeftForeArm  171.581 -48.7393 -168.569
LeftHand  -0.25398 0.0180481 5.50724
RightShoulder  5.15703 8.57932 36.6802
RightArm  1.6658 -17.4331 35.7267
RightForeArm  148.164 54.4177 164.291
RightHand  -1.28827 2.32766 -19.4662
LeftUpLeg  3.68099 7.55118 8.84536
LeftLeg  0.309861 12.3807 -3.40092
LeftFoot  2.926 0.754382 -6.17468
LeftToes  1.06245e-005 4.65869e-005 -8.65517e-006
844
root  14.7304 40.6369 10.0129 148.754 87.143 151.728
RightUpLeg  3.3001 -11.9461 -12.6104
RightLeg  6.05364 -10.3794 2.80525
RightFoot  -0.817622 -0.367871 3.93052
RightToes  0.000481921 0.542163 -0.142578
Spine  -2.0148 -1.30312 -1.32704
Spine1  13.9189 -2.09761 2.6913
HEad  16.3113 2.0863 0.125957
LeftShoulder1  9.47169 -13.7581 -47.8965
LeftArm  -19.0859 3.56652 -22.0599
LeftForeArm  171.03 -52.1792 -167.106
LeftHand  -0.25398 0.0180481 5.50724
RightShoulder  5.14203 8.57962 36.5586
RightArm  1.72236 -17.4131 35.8723
RightForeArm  147.989 54.4279 164.272
RightHand  -1.31305 2.38182 -19.6977
LeftUpLeg  3.64977 7.56525 8.87657
LeftLeg  0.369292 12.2454 -3.38074
LeftFoot  2.948 0.756289 -6.17613
LeftToes  1.06245e-005 4.65869e-005 -8.65517e-006
845
root  14.6928 40.6364 10.0283 151.166 86.9819 154.238
RightUpLeg  3.38177 -11.9212 -12.5563
RightLeg  6.08008 -10.6045 2.78808
RightFoot  -0.802488 -0.364893 3.89494
RightToes  0.000481921 0.542163 -0.142578
Spine  -2.15989 -1.33911 -1.18665
Spine1  14.1095 -2.09414 2.53319
HEad  16.2909 2.17235 0.608362
LeftShoulder1  9.11706 -13.5084 -46.7586
LeftArm  -19.5489 -3.54042 -22.7717
LeftForeArm  170.073 -56.7681 -164.762
LeftHand  -0.25398 0.0180481 5.50724
RightShoulder  5.1527 8.64953 36.4059
RightArm  1.76087 -17.5274 36.0009
RightForeArm  147.829 54.4752 164.235
RightHand  -1.35781 2.56088 -19.9125
LeftUpLeg  3.61071 7.58115 8.93467
LeftLeg  0.445918 12.0125 -3.3492
LeftFoot  2.98846 0.759253 -6.18176
LeftToes  1.06245e-005 4.65869e-005 -8.65517e-006
846
root  14.6512 40.6359 10.0514 154.077 86.7378 157.234
RightUpLeg  3.45964 -11.8637 -12.4637
RightLeg  6.10406 -10.9587 2.73701
RightFoot  -0.780546 -0.362985 3.87194
RightToes  0.000481921 0.542163 -0.142578
Spine  -2.18783 -1.44391 -1.1906
Spine1  14.0416 -2.197 2.51979
HEad  16.4843 2.49304 1.04427
LeftShoulder1  8.76488 -13.2839 -45.5177
LeftArm  -20.0136 -11.3376 -23.2511
LeftForeArm  167.492 -62.0652 -161.124
LeftHand  -0.25398 0.0180481 5.50724
RightShoulder  5.19805 8.80101 36.2567
RightArm  1.97242 -17.6541 35.9149
RightForeArm  147.729 54.6088 164.155
RightHand  -1.39901 2.77757 -19.9805
LeftUpLeg  3.54351 7.58356 8.9949
LeftLeg  0.481531 11.7271 -3.31328
LeftFoot  3.07181 0.765541 -6.19885
LeftToes  1.06245e-005 4.65869e-005 -8.65517e-006
847
root  14.6089 40.6361 10.0814 156.384 86.4954 159.566
RightUpLeg  3.46796 -11.8248 -12.3705
RightLeg  6.13359 -11.2928 2.70717
RightFoot  -0.773589 -0.361625 3.85704
RightToes  0.000481921 0.542163 -0.142578
Spine  -2.18745 -1.6086 -1.40307
Spine1  13.8274 -2.42058 2.72351
HEad  16.6914 2.907 1.24078
LeftShoulder1  8.47208 -13.1766 -44.2274
LeftArm  -20.8119 -19.1005 -23.3074
LeftForeArm  161.448 -67.6782 -155.22
LeftHand  -0.25398 0.0180481 5.50724
RightShoulder  5.23044 8.93641 36.0621
RightArm  2.37376 -17.5781 35.7321
RightForeArm  147.712 54.8331 164.032
RightHand  -1.39505 2.80801 -19.8544
LeftUpLeg  3.45401 7.57506 9.04488
LeftLeg  0.42535 11.4768 -3.29026
LeftFoot  3.20661 0.774426 -6.21677
LeftToes  1.06245e-005 4.65869e-005 -8.65517e-006
848
root  14.5693 40.6376 10.1167 157.574 86.3434 160.761
RightUpLeg  3.43512 -11.8234 -12.3038
RightLeg  6.16722 -11.4866 2.72035
RightFoot  -0.775447 -0.358506 3.81442
RightToes  0.000481921 0.542163 -0.142578
Spine  -2.20858 -1.77247 -1.77037
Spine1  13.6389 -2.68067 3.06852
HEad  16.7272 3.21207 1.28688
LeftShoulder1  8.18296 -13.1281 -42.7639
LeftArm  -22.0237 -26.6304 -22.9105
LeftForeArm  149.343 -73.4739 -144.196
LeftHand  -0.25398 0.0180481 5.50724
RightShoulder  5.22968 8.9987 35.8515
RightArm  2.77871 -17.3157 35.7174
RightForeArm  147.791 55.0804 163.902
RightHand  -1.3443 2.59572 -19.6386
LeftUpLeg  3.41492 7.56451 9.08837
LeftLeg  0.280845 11.3215 -3.29329
LeftFoot  3.37774 0.783688 -6.22342
LeftToes  1.06245e-005 4.65869e-005 -8.65517e-006
849
root  14.5358 40.6398 10.152 157.753 86.2913 160.985
RightUpLeg  3.42353 -11.8492 -12.2794
RightLeg  6.21286 -11.5284 2.75535
RightFoot  -0.779638 -0.353795 3.7467
RightToes  0.000481921 0.542163 -0.142578
Spine  -2.20467 -1.91052 -2.22815
Spine1  13.5112 -2.92988 3.48056
HEad  16.5942 3.36109 1.31297
LeftShoulder1  7.8177 -13.0034 -41.0467
LeftArm  -23.5636 -33.9632 -22.1032
LeftForeArm  123.797 -78.6478 -119.474
LeftHand  -0.25398 0.0180481 5.50724
RightShoulder  5.22838 9.0401 35.7064
RightArm  3.06761 -17.0767 35.8918
RightForeArm  147.858 55.2664 163.804
RightHand  -1.30986 2.42506 -19.5484
LeftUpLeg  3.46823 7.55086 9.12041
LeftLeg  0.111325 11.2704 -3.30342
LeftFoot  3.54945 0.791874 -6.22144
LeftToes  1.06245e-005 4.65869e-005 -8.65517e-006
850
root  14.5079 40.6405 10.1828 157.402 86.329 160.685
RightUpLeg  3.38499 -11.8797 -12.268
RightLeg  6.29729 -11.461 2.7893
RightFoot  -0.802276 -0.350375 3.69863
RightToes  0.000481921 0.542163 -0.142578
Spine  -2.19635 -2.0247 -2.72316
Spine1  13.4112 -3.17724 3.97242
HEad  16.4178 3.48611 1.22201
LeftShoulder1  7.3834 -12.7585 -39.1964
LeftArm  -25.4047 -40.9881 -20.8026
LeftForeArm  76.5496 -79.5833 -72.2849
LeftHand  -0.25398 0.0180481 5.50724
RightShoulder  5.24989 9.12138 35.6106
RightArm  3.26336 -16.9732 36.0628
RightForeArm  147.742 55.3723 163.736
RightHand  -1.33662 2.53598 -19.6693
LeftUpLeg  3.52599 7.54786 9.15282
LeftLeg  0.0113798 11.3091 -3.30611
LeftFoot  3.67186 0.798246 -6.2241
LeftToes  1.06245e-005 4.65869e-005 -8.65517e-006
851
root  14.482 40.6379 10.2111 157.069 86.488 160.327
RightUpLeg  3.21034 -11.88 -12.186
RightLeg  6.43247 -11.328 2.80808
RightFoot  -0.840601 -0.347287 3.65537
RightToes  0.000481921 0.542163 -0.142578
Spine  -2.25241 -2.0993 -3.15814
Spine1  13.2814 -3.40246 4.52333
HEad  16.3514 3.71839 0.901373
LeftShoulder1  6.94804 -12.4744 -37.3589
LeftArm  -27.5528 -47.4449 -18.8558
LeftForeArm  41.3071 -73.9356 -37.5637
LeftHand  -0.25398 0.0180481 5.50724
RightShoulder  5.28854 9.2434 35.5176
RightArm  3.39132 -16.9809 36.0923
RightForeArm  147.534 55.449 163.677
RightHand  -1.38563 2.76582 -19.8224
LeftUpLeg  3.47058 7.59097 9.23468
LeftLeg  0.043232 11.4214 -3.30276
LeftFoot  3.71363 0.803114 -6.24536
LeftToes  1.06245e-005 4.65869e-005 -8.65517e-006
852
root  14.4557 40.6342 10.2411 156.879 86.7701 160.053
RightUpLeg  2.92894 -11.8336 -12.0018
RightLeg  6.57569 -11.1655 2.80611
RightFoot  -0.854683 -0.34027 3.55077
RightToes  0.000481921 0.542163 -0.142578
Spine  -2.3035 -2.14143 -3.49785
Spine1  13.0386 -3.59369 5.07862
HEad  16.4688 4.07817 0.464401
LeftShoulder1  6.53136 -12.2008 -35.5156
LeftArm  -29.9707 -53.1397 -16.2026
LeftForeArm  23.762 -65.2736 -22.7169
LeftHand  -0.25398 0.0180481 5.50724
RightShoulder  5.34702 9.39956 35.4695
RightArm  3.47842 -17.0631 35.9463
RightForeArm  147.568 55.5459 163.625
RightHand  -1.39648 2.8389 -19.8037
LeftUpLeg  3.33289 7.68566 9.38583
LeftLeg  0.169569 11.5819 -3.29704
LeftFoot  3.69987 0.808006 -6.28728
LeftToes  1.06245e-005 4.65869e-005 -8.65517e-006
